HIERARCHY
ROOT Hips
{
	OFFSET 0.000000 0.000000 0.000000 
	CHANNELS 6 Xposition Yposition Zposition Zrotation Yrotation Xrotation
	JOINT LeftUpLeg
	{
		OFFSET 1.363060 -1.794630 0.839290 
		CHANNELS 3 Zrotation Yrotation Xrotation
		JOINT LeftLeg
		{
			OFFSET 2.448110 -6.726130 0.000000 
			CHANNELS 3 Zrotation Yrotation Xrotation
			JOINT LeftFoot
			{
				OFFSET 2.562200 -7.039590 0.000000 
				CHANNELS 3 Zrotation Yrotation Xrotation
				JOINT LeftToeBase
				{
					OFFSET 0.157640 -0.433110 2.322550 
					CHANNELS 3 Zrotation Yrotation Xrotation
					End Site
					{
						OFFSET 0.000000 0.000000 0.000000 
					}
				}
			}
		}
	}
	JOINT RightUpLeg
	{
		OFFSET -1.305520 -1.794630 0.839290 
		CHANNELS 3 Zrotation Yrotation Xrotation
		JOINT RightLeg
		{
			OFFSET -2.542530 -6.985550 0.000000 
			CHANNELS 3 Zrotation Yrotation Xrotation
			JOINT RightFoot
			{
				OFFSET -2.568260 -7.056230 0.000000 
				CHANNELS 3 Zrotation Yrotation Xrotation
				JOINT RightToeBase
				{
					OFFSET -0.164730 -0.452590 2.363150 
					CHANNELS 3 Zrotation Yrotation Xrotation
					End Site
					{
						OFFSET 0.000000 0.000000 0.000000 
					}
				}
			}
		}
	}
	JOINT Spine
	{
		OFFSET 0.028270 2.035590 -0.193380 
		CHANNELS 3 Zrotation Yrotation Xrotation
		JOINT Spine1
		{
			OFFSET 0.056720 2.048850 -0.042750 
			CHANNELS 3 Zrotation Yrotation Xrotation
			JOINT Neck1
			{
				OFFSET -0.054170 1.746240 0.172020 
				CHANNELS 3 Zrotation Yrotation Xrotation
				JOINT Head
				{
					OFFSET 0.104070 1.761360 -0.123970 
					CHANNELS 3 Zrotation Yrotation Xrotation
					End Site
					{
						OFFSET 0.000000 0.000000 0.000000 
					}
				}
			}
			JOINT LeftArm
			{
				OFFSET 3.362410 1.200890 -0.311210 
				CHANNELS 3 Zrotation Yrotation Xrotation
				JOINT LeftForeArm
				{
					OFFSET 4.983000 -0.000000 -0.000000 
					CHANNELS 3 Zrotation Yrotation Xrotation
					JOINT LeftHand
					{
						OFFSET 3.483560 -0.000000 -0.000000 
						CHANNELS 3 Zrotation Yrotation Xrotation
						JOINT LeftHandIndex1
						{
							OFFSET 0.715260 -0.000000 -0.000000 
							CHANNELS 3 Zrotation Yrotation Xrotation
							End Site
							{
								OFFSET 0.000000 0.000000 0.000000 
							}
						}
					}
				}
			}
			JOINT RightArm
			{
				OFFSET -3.136600 1.374050 -0.404650 
				CHANNELS 3 Zrotation Yrotation Xrotation
				JOINT RightForeArm
				{
					OFFSET -5.241900 -0.000000 -0.000000 
					CHANNELS 3 Zrotation Yrotation Xrotation
					JOINT RightHand
					{
						OFFSET -3.444170 -0.000000 -0.000000 
						CHANNELS 3 Zrotation Yrotation Xrotation
						JOINT RightHandIndex1
						{
							OFFSET -0.622530 -0.000000 -0.000000 
							CHANNELS 3 Zrotation Yrotation Xrotation
							End Site
							{
								OFFSET 0.000000 0.000000 0.000000 
							}
						}
					}
				}
			}
		}
	}
}
MOTION
Frames: 9
Frame Time: 0.041667
0.782921 18.520718 9.438607 -9.815546 6.866421 11.580575 -9.473202 -42.191935 6.737585 -3.280090 -1.726993 -1.515565 -14.194638 40.553655 -12.945655 0.033800 -1.187500 -3.264900 21.272982 27.693107 -0.863817 3.877014 -0.256126 2.346082 10.791543 -31.335969 -9.848314 -0.218900 -3.012200 8.312700 24.568748 3.580726 14.234459 -12.820614 0.176958 -21.371618 10.332468 -14.744978 31.206820 0.839000 -5.752700 9.870600 -85.382022 6.535062 9.501572 81.346604 -55.972224 -60.289750 1.715063 -2.345170 -61.867849 -7.125000 0.000000 0.000000 46.143152 54.692380 26.830520 -39.853788 37.970303 -18.971885 -1.432276 2.966054 -24.253722 7.125000 0.000000 0.000000 
0.788827 18.520296 9.432700 -9.851217 6.600988 11.638645 -9.411402 -42.241537 6.727119 -3.281151 -1.719922 -1.506148 -14.263701 40.700441 -13.216529 0.027200 -1.065500 -2.929200 21.286926 27.952701 -0.799106 3.878867 -0.222921 2.273318 10.787450 -31.327035 -9.829298 -0.231800 -3.098700 8.553800 24.215845 3.575852 14.368847 -12.857491 0.127977 -21.488365 10.025203 -14.658453 31.616793 0.748300 -5.725000 9.922200 -85.263954 6.322499 9.493684 81.491803 -56.012170 -60.434088 1.708678 -2.341380 -61.779210 -7.125000 0.000000 0.000000 47.130567 56.357902 29.240927 -41.906144 38.708387 -20.377511 -1.431880 2.926736 -24.363909 7.125000 0.000000 0.000000 
0.795577 18.521139 9.426794 -9.855074 6.346525 11.641151 -9.434135 -42.398729 6.831897 -3.285599 -1.731097 -1.530954 -14.367220 40.923082 -13.576688 0.020200 -0.916900 -2.520300 21.265512 28.085347 -0.785946 3.876070 -0.204107 2.246841 10.767784 -31.263488 -9.696821 -0.241100 -3.159600 8.723300 23.811306 3.438131 14.903023 -12.843267 0.061898 -21.656321 9.711501 -14.566815 31.892150 0.659900 -5.702300 9.944900 -85.162478 5.944162 9.524780 81.523357 -56.030889 -60.463464 1.696772 -2.348442 -61.494848 -7.125000 0.000000 0.000000 48.078642 58.223636 31.823324 -43.761183 39.172598 -21.645032 -1.446342 2.897273 -24.756330 7.125000 0.000000 0.000000 
0.800956 18.523882 9.421837 -9.780539 6.067888 11.640447 -9.513560 -42.412592 6.877790 -3.292538 -1.740100 -1.547096 -14.418191 41.041858 -13.878948 0.013700 -0.756800 -2.079800 21.162318 28.076664 -0.845910 3.868629 -0.195827 2.241605 10.738585 -31.162762 -9.394830 -0.234100 -3.114300 8.597200 23.283051 3.306568 15.516631 -12.753536 0.023169 -21.808157 9.570834 -14.514737 32.017331 0.623100 -5.690700 9.929800 -85.061162 5.542316 9.636830 81.516414 -56.050745 -60.460574 1.676331 -2.359227 -61.245674 -7.125000 0.000000 0.000000 49.185635 60.204586 34.515120 -45.431501 39.443606 -22.788584 -1.482558 2.873509 -25.171940 7.125000 0.000000 0.000000 
0.803277 18.527573 9.414981 -9.745539 5.777324 11.602915 -9.462468 -42.163561 6.747905 -3.294110 -1.732481 -1.525087 -14.393186 40.985824 -13.914957 0.010900 -0.673600 -1.851200 21.127661 28.033341 -0.933385 3.856257 -0.215047 2.304781 10.696132 -31.036521 -9.057944 -0.222100 -3.033800 8.373000 22.827058 3.145255 16.207562 -12.648905 -0.019560 -21.924737 9.691691 -14.541395 31.969262 0.658000 -5.698300 9.889000 -85.007569 5.052672 9.743495 81.438347 -56.066532 -60.400008 1.651116 -2.367349 -61.107454 -7.125000 0.000000 0.000000 50.574277 62.393884 37.488110 -46.830434 39.504958 -23.736987 -1.538647 2.855399 -25.710364 7.125000 0.000000 0.000000 
0.803382 18.531159 9.406227 -9.755578 5.520028 11.483724 -9.373274 -41.884034 6.600396 -3.292601 -1.726636 -1.494562 -14.375486 40.928739 -13.810488 0.011400 -0.688400 -1.891800 21.133092 27.993177 -1.002085 3.843052 -0.236427 2.380279 10.673293 -30.964334 -8.729845 -0.206900 -2.928700 8.080300 22.686966 2.730748 17.417098 -12.442313 -0.110680 -22.004754 9.566631 -14.483821 31.817913 0.638600 -5.694100 9.856800 -85.196466 4.312874 9.698689 81.376868 -56.100165 -60.355077 1.633108 -2.373373 -60.974052 -7.125000 0.000000 0.000000 52.461566 65.219432 40.953850 -47.793634 39.231299 -24.340088 -1.624282 2.864343 -26.194098 7.125000 0.000000 0.000000 
0.803488 18.533902 9.397051 -9.782345 5.312010 11.339121 -9.353574 -41.703082 6.551660 -3.292161 -1.727625 -1.476114 -14.397828 40.958035 -13.704895 0.014700 -0.784100 -2.155000 21.122752 27.887024 -1.074195 3.831509 -0.252238 2.444509 10.630169 -30.838241 -8.429230 -0.194500 -2.840300 7.834600 22.799273 2.210397 18.699031 -12.199691 -0.235059 -21.873052 9.312651 -14.341751 31.585097 0.603400 -5.667300 9.808600 -85.525107 3.477641 9.692845 81.271095 -56.156929 -60.283545 1.622615 -2.370761 -60.848574 -7.125000 0.000000 0.000000 55.169667 68.834893 44.818892 -47.517902 38.490212 -24.013057 -1.691386 2.902059 -26.635031 7.125000 0.000000 0.000000 
0.803910 18.535695 9.386187 -9.906099 5.144134 11.201952 -9.276756 -41.456854 6.513699 -3.290796 -1.724031 -1.455960 -14.397670 40.939842 -13.527769 0.019400 -0.898300 -2.469000 21.218028 27.746839 -1.126264 3.819226 -0.285884 2.546689 10.539380 -30.606569 -8.196604 -0.185300 -2.772600 7.646200 23.148555 1.781074 19.442196 -12.075087 -0.398997 -21.345458 9.235222 -14.220558 31.213947 0.622800 -5.635700 9.719900 -85.788710 2.684821 9.919166 81.089126 -56.237688 -60.138981 1.614051 -2.371094 -60.795965 -7.125000 0.000000 0.000000 59.648783 73.503065 49.258173 -45.861976 37.784823 -22.847309 -1.860985 2.922739 -26.590874 7.125000 0.000000 0.000000 
0.803171 18.535800 9.373847 -10.056041 4.963365 11.055509 -9.190134 -41.183797 6.464173 -3.288747 -1.727812 -1.444394 -14.409493 40.942842 -13.329783 0.022600 -0.970500 -2.667500 21.302240 27.564900 -1.224287 3.803781 -0.326084 2.658566 10.451919 -30.383574 -7.868731 -0.169400 -2.651200 7.309100 23.746644 1.284795 20.202846 -11.861049 -0.545667 -20.245934 8.921359 -14.068132 30.789864 0.566200 -5.594900 9.706100 -86.106228 1.588058 10.272944 80.861002 -56.293296 -59.896111 1.602950 -2.390748 -60.741803 -7.125000 0.000000 0.000000 67.122266 79.687757 54.917522 -41.986253 37.383522 -20.315592 -1.997062 2.936887 -25.589969 7.125000 0.000000 0.000000 
